<svg width="719" height="85" viewBox="0 0 719 85" fill="none" xmlns="http://www.w3.org/2000/svg">
<g clip-path="url(#clip0_1_67)">
<path fill-rule="evenodd" clip-rule="evenodd" d="M46.1233 32.5135C42.5509 30.8361 38.6362 30.0166 34.6909 30.1199C24.2587 30.1199 17.5777 38.4448 17.5777 50.7C17.5777 62.6693 23.2579 71.8872 35.0477 71.8872C39.5198 71.7032 43.9186 70.6854 48.0169 68.8861L48.7671 82.8921C43.2906 84.4738 37.6021 85.1969 31.9042 85.0358C10.6825 85.0358 -0.000427246 70.5297 -0.000427246 50.7C-0.000427246 31.8706 11.0749 16.9713 31.2962 16.9713C36.8159 16.852 42.3217 17.5748 47.6236 19.115L46.1233 32.5135ZM89.6024 16.9713C108.823 16.9713 123.543 29.9768 123.543 51.4502C123.543 70.1366 111.074 85.0358 89.6024 85.0358C68.2379 85.0358 55.8051 70.1366 55.8051 51.4502C55.8051 29.9768 70.4886 16.9713 89.6024 16.9713ZM89.6024 71.8872C102.536 71.8872 105.93 60.2755 105.93 49.4138C105.93 39.4453 100.642 30.1199 89.6024 30.1199C78.6701 30.1199 73.3824 39.6954 73.3824 49.4138C73.3824 60.1683 76.7765 71.8872 89.6024 71.8872ZM136.726 18.4721H152.661V27.3329H152.91C155.268 23.928 158.462 21.1868 162.185 19.3723C165.907 17.5578 170.033 16.7308 174.167 16.9713C189.494 16.9713 196.175 27.8331 196.175 42.4821V83.535H179.313V48.8062C179.313 40.8386 179.205 30.1199 168.38 30.1199C156.197 30.1199 153.554 43.3756 153.554 51.7005V83.535H136.726V18.4721ZM213.502 18.4721H229.437V27.3329H229.722C232.07 23.9264 235.257 21.183 238.974 19.3679C242.692 17.5529 246.815 16.7273 250.945 16.9713C266.272 16.9713 272.952 27.8331 272.952 42.4821V83.535H256.089V48.8062C256.089 40.8386 255.982 30.1199 245.157 30.1199C232.974 30.1199 230.33 43.3756 230.33 51.7005V83.535H213.502V18.4721ZM342.154 79.8548C335.332 83.5068 327.667 85.2941 319.932 85.0358C298.568 85.0358 286.135 72.6732 286.135 51.3071C286.135 32.5135 296.068 16.9713 316.146 16.9713C340.154 16.9713 346.942 33.5139 346.942 56.2378H302.212C302.962 66.7422 310.25 72.6736 320.683 72.6736C328.293 72.4088 335.7 70.1408 342.154 66.0991V79.8548ZM330.865 44.6257C330.365 36.408 326.577 29.3339 317.146 29.3339C307.714 29.3339 302.962 35.9078 302.212 44.6257H330.865ZM402.104 32.5135C398.533 30.832 394.617 30.0124 390.671 30.1199C380.239 30.1199 373.594 38.4448 373.594 50.7C373.594 62.6693 379.239 71.8872 391.065 71.8872C395.525 71.6993 399.91 70.6816 403.997 68.8861L404.748 82.8921C399.283 84.4716 393.607 85.1947 387.92 85.0358C366.663 85.0358 355.981 70.5297 355.981 50.7C355.981 31.8706 367.056 16.9713 387.278 16.9713C392.797 16.852 398.303 17.5748 403.605 19.115L402.104 32.5135ZM421.468 30.87H409.035V18.4721H421.468V5.46657L438.295 0.0356445V18.4721H453.265V30.87H438.295V61.1684C438.295 66.7422 439.796 71.8872 446.227 71.8872C448.886 71.9992 451.526 71.3945 453.872 70.1365L454.372 83.535C450.32 84.6214 446.134 85.1268 441.94 85.0358C428.756 85.0358 421.468 76.818 421.468 63.9554V30.87ZM526.326 73.1734H526.075C524.102 76.8343 521.157 79.8792 517.564 81.9723C513.971 84.0654 509.869 85.1257 505.711 85.0358C487.491 85.0358 484.597 72.6736 484.597 66.8497C484.597 45.2692 507.462 44.2328 524.075 44.2328H525.576V40.946C525.576 29.9771 521.681 24.4033 510.999 24.4033C504.325 24.2871 497.764 26.1386 492.135 29.7269V22.0092C498.08 19.3398 504.486 17.8475 510.999 17.6146C526.826 17.6146 533.471 24.7961 533.471 41.5888V69.9939C533.346 74.5174 533.561 79.0437 534.114 83.535H526.326V73.1734ZM525.576 51.0572H523.325C509.606 51.0572 493.278 52.4505 493.278 66.5993C493.278 75.0672 499.316 78.2114 506.604 78.2114C525.182 78.2114 525.576 61.9188 525.576 54.9873V51.0572ZM602.352 68.35C602.352 73.2807 602.353 78.3542 602.853 83.535H595.171V72.0303H594.957C592.313 77.8541 587.526 85.0358 574.2 85.0358C558.373 85.0358 552.335 74.424 552.335 60.2752V19.115H560.266V58.2746C560.266 70.3868 564.518 78.2114 575.45 78.2114C589.919 78.2114 594.421 65.4562 594.421 54.7374V19.115H602.352V68.35ZM649.833 25.9394H635.256V67.5999C635.256 73.4237 637.4 78.2114 643.831 78.2114C646.336 78.1993 648.813 77.6895 651.119 76.711L651.619 83.2851C648.515 84.4136 645.241 85.0055 641.938 85.0358C627.861 85.0358 627.361 75.3174 627.361 63.5624V25.9394H614.785V19.115H627.361V3.57281L635.256 0.786256V19.115H649.833V25.9394ZM689.061 17.6146C709.782 17.6146 718.965 33.764 718.965 51.3071C718.965 68.8502 709.782 85.0358 689.061 85.0358C668.339 85.0358 659.157 68.8859 659.157 51.3071C659.157 33.7283 668.304 17.6146 689.061 17.6146ZM689.061 78.2114C702.887 78.2114 710.282 66.2062 710.282 51.3071C710.282 36.408 702.887 24.4033 689.061 24.4033C675.235 24.4033 667.804 36.408 667.804 51.3071C667.804 66.2062 675.235 78.2114 689.061 78.2114Z" fill="black"/>
</g>
<defs>
<clipPath id="clip0_1_67">
<rect width="719" height="85" fill="white"/>
</clipPath>
</defs>
</svg>
